HIERARCHY
ROOT Hips
{
 OFFSET 0.000000 0.000000 0.000000
 CHANNELS 6 Xposition Yposition Zposition Yrotation Xrotation Zrotation
 JOINT Chest
 {
  OFFSET 0.000000 9.585900 0.002600
  CHANNELS 3 Yrotation Xrotation Zrotation
  JOINT Chest2
  {
   OFFSET 0.000000 9.601200 -0.005300
   CHANNELS 3 Yrotation Xrotation Zrotation
   JOINT Chest3
   {
    OFFSET 0.000000 9.561800 0.000000
    CHANNELS 3 Yrotation Xrotation Zrotation
    JOINT Chest4
    {
     OFFSET 0.000000 9.552100 0.000000
     CHANNELS 3 Yrotation Xrotation Zrotation
     JOINT Neck
     {
      OFFSET 0.000000 14.453000 0.000000
      CHANNELS 3 Yrotation Xrotation Zrotation
      JOINT Head
      {
       OFFSET 0.000000 8.936500 -0.011300
       CHANNELS 3 Yrotation Xrotation Zrotation
       End Site
       {
        OFFSET 0.000000 17.073600 -0.006000
       }
      }
     }
     JOINT RightCollar
     {
      OFFSET -2.921100 9.558500 0.000000
      CHANNELS 3 Yrotation Xrotation Zrotation
      JOINT RightShoulder
      {
       OFFSET -13.519700 0.000000 0.000000
       CHANNELS 3 Yrotation Xrotation Zrotation
       JOINT RightElbow
       {
        OFFSET 0.000000 -29.696600 0.000000
        CHANNELS 3 Yrotation Xrotation Zrotation
        JOINT RightWrist
        {
         OFFSET 0.000000 -24.004700 0.000000
         CHANNELS 3 Yrotation Xrotation Zrotation
         End Site
         {
          OFFSET 0.000000 -17.728500 0.000000
         }
        }
       }
      }
     }
     JOINT LeftCollar
     {
      OFFSET 2.921100 9.558500 0.000000
      CHANNELS 3 Yrotation Xrotation Zrotation
      JOINT LeftShoulder
      {
       OFFSET 13.519700 0.000000 0.000000
       CHANNELS 3 Yrotation Xrotation Zrotation
       JOINT LeftElbow
       {
        OFFSET 0.000000 -29.696600 0.000000
        CHANNELS 3 Yrotation Xrotation Zrotation
        JOINT LeftWrist
        {
         OFFSET 0.000000 -24.004700 0.000000
         CHANNELS 3 Yrotation Xrotation Zrotation
         End Site
         {
          OFFSET 0.000000 -17.728500 0.000000
         }
        }
       }
      }
     }
    }
   }
  }
 }
 JOINT RightHip
 {
  OFFSET -7.771700 -0.012900 -0.001300
  CHANNELS 3 Yrotation Xrotation Zrotation
  JOINT RightKnee
  {
   OFFSET 0.000000 -40.869800 0.001200
   CHANNELS 3 Yrotation Xrotation Zrotation
   JOINT RightAnkle
   {
    OFFSET 0.000000 -39.717900 0.002100
    CHANNELS 3 Yrotation Xrotation Zrotation
    JOINT RightToe
    {
     OFFSET 0.000000 -4.965400 11.033500
     CHANNELS 3 Yrotation Xrotation Zrotation
     End Site
     {
      OFFSET 0.000000 -1.423100 5.872300
     }
    }
   }
  }
 }
 JOINT LeftHip
 {
  OFFSET 7.771700 -0.012900 -0.001300
  CHANNELS 3 Yrotation Xrotation Zrotation
  JOINT LeftKnee
  {
   OFFSET 0.000000 -40.869800 0.001200
   CHANNELS 3 Yrotation Xrotation Zrotation
   JOINT LeftAnkle
   {
    OFFSET 0.000000 -39.717900 0.002100
    CHANNELS 3 Yrotation Xrotation Zrotation
    JOINT LeftToe
    {
     OFFSET 0.000000 -4.965400 11.033500
     CHANNELS 3 Yrotation Xrotation Zrotation
     End Site
     {
      OFFSET 0.000000 -1.423100 5.872300
     }
    }
   }
  }
 }
}
MOTION
Frames: 15
Frame Time: 0.008333
-16.703316 56.918737 78.370595 -178.938765 -41.055578 0.872618 0.879760 20.888583 4.309134 0.102450 2.934151 0.409120 0.164875 4.770102 0.666608 0.956630 18.316329 2.716040 0.428297 21.793104 -1.470667 1.162877 4.648402 -2.755424 5.271980 1.760022 0.435020 29.496655 -41.308085 -25.185849 -156.784484 -54.926883 -169.694151 6.295824 -3.732729 -46.369822 -10.959971 -1.749550 -2.320480 -10.033421 -34.228993 2.479767 145.581630 -60.334285 -174.317399 -16.531878 -5.050821 10.280266 11.476278 -30.359427 -10.033394 -4.728234 65.103447 -1.765044 5.292382 8.712034 6.510425 -0.054966 0.189599 -0.007273 -9.430442 -37.631699 -0.964594 26.738875 63.283191 26.108076 -13.511649 31.805132 -3.927888 0.233046 -14.568385 -5.224402
-16.696712 56.916412 78.374625 -178.944020 -41.060040 0.880884 0.896280 20.896523 4.312132 0.094056 2.931987 0.406957 0.166704 4.770513 0.665765 0.964672 18.318299 2.714000 0.421197 21.799527 -1.468256 1.159709 4.678490 -2.754765 5.272258 1.750477 0.428756 29.488658 -41.314011 -25.175879 -156.798225 -54.925381 -169.688034 6.295498 -3.722702 -46.371399 -10.966918 -1.759731 -2.308066 -10.039900 -34.238203 2.486187 145.553688 -60.331708 -174.289025 -16.532762 -5.044323 10.283186 11.482919 -30.357320 -10.030310 -4.719436 65.110559 -1.762483 5.286170 8.709821 6.509128 -0.053173 0.190521 -0.007132 -9.432207 -37.634322 -0.960198 26.761883 63.264277 26.130549 -13.557894 31.846374 -3.926078 0.235874 -14.557536 -5.247811
-16.687965 56.913753 78.378968 -178.948565 -41.064186 0.880386 0.906188 20.901582 4.319187 0.090519 2.931520 0.405835 0.171855 4.771563 0.665108 0.964514 18.320000 2.709620 0.419440 21.799199 -1.462430 1.162628 4.709206 -2.761497 5.285296 1.740354 0.423068 29.464175 -41.316413 -25.159668 -156.800666 -54.911675 -169.679690 6.302438 -3.710911 -46.372590 -10.969825 -1.764501 -2.298947 -10.050977 -34.262221 2.511306 145.493164 -60.331420 -174.229525 -16.535271 -5.059670 10.295589 11.483891 -30.356431 -10.019534 -4.715044 65.115362 -1.758431 5.284215 8.708718 6.501700 -0.052710 0.194208 -0.007989 -9.442046 -37.635898 -0.945589 26.792590 63.244316 26.166108 -13.614315 31.879101 -3.945265 0.232068 -14.532819 -5.257061
-16.678665 56.910856 78.383604 -178.956904 -41.068664 0.882258 0.921177 20.905479 4.327231 0.088087 2.932224 0.405051 0.176808 4.771993 0.664185 0.964133 18.320358 2.707321 0.420392 21.809667 -1.461883 1.164055 4.728815 -2.760568 5.294771 1.732006 0.421704 29.461016 -41.323140 -25.157785 -156.806237 -54.891473 -169.670624 6.304133 -3.686761 -46.370425 -10.975814 -1.774944 -2.292161 -10.053984 -34.268102 2.524357 145.473377 -60.316831 -174.233380 -16.528480 -5.040768 10.318562 11.491185 -30.355739 -10.006066 -4.732617 65.120277 -1.776735 5.283493 8.707102 6.499634 -0.054175 0.194192 -0.006315 -9.460595 -37.638286 -0.921774 26.812353 63.229996 26.183173 -13.671800 31.914105 -3.969478 0.233858 -14.520501 -5.265829
-16.671414 56.908176 78.388169 -178.972165 -41.077001 0.902634 0.938893 20.912934 4.321273 0.085944 2.934166 0.404490 0.175065 4.770775 0.663608 0.973447 18.324043 2.703220 0.421183 21.817626 -1.460152 1.169958 4.755783 -2.761148 5.287647 1.724330 0.428570 29.501673 -41.329543 -25.187855 -156.818905 -54.901455 -169.686813 6.305431 -3.679461 -46.372159 -11.000234 -1.797794 -2.285007 -10.044438 -34.265713 2.540499 145.441744 -60.312718 -174.210687 -16.519445 -5.037258 10.326502 11.512866 -30.350808 -10.006657 -4.757814 65.129166 -1.807094 5.283539 8.704583 6.502148 -0.051495 0.194870 -0.007336 -9.466821 -37.637970 -0.915274 26.831401 63.213300 26.190406 -13.715035 31.960808 -3.969406 0.228894 -14.516285 -5.286768
-16.671936 56.901641 78.397567 -178.944682 -41.052279 0.942269 0.904877 20.888843 4.262583 0.102353 2.933056 0.405225 0.157752 4.770455 0.663538 1.005698 18.327281 2.697613 0.425588 21.832840 -1.456260 1.145456 4.748551 -2.736486 5.272427 1.713735 0.442086 29.506595 -41.331516 -25.202588 -156.819064 -54.886006 -169.693008 6.318889 -3.667792 -46.386780 -11.040856 -1.805983 -2.265841 -10.043515 -34.278391 2.557961 145.410021 -60.307250 -174.188666 -16.513137 -5.041869 10.338786 11.532466 -30.375816 -10.078184 -4.759505 65.151991 -1.817333 5.284002 8.689418 6.506438 -0.052373 0.200130 -0.007374 -9.506810 -37.683759 -0.940984 26.790399 63.194108 26.138276 -13.821735 32.018613 -4.094805 0.290898 -14.517582 -5.254141
-16.654401 56.898017 78.402881 -178.954639 -41.058189 0.897313 0.934804 20.894510 4.318788 0.106036 2.932753 0.405243 0.166261 4.772984 0.662619 0.998097 18.324871 2.699642 0.440183 21.840681 -1.462850 1.162294 4.782541 -2.734624 5.289532 1.705606 0.433884 29.503252 -41.334295 -25.208536 -156.824958 -54.873495 -169.699968 6.339894 -3.660875 -46.393608 -11.058815 -1.837347 -2.269417 -10.037853 -34.269138 2.583027 145.379285 -60.300041 -174.167358 -16.503417 -5.042910 10.350858 11.509830 -30.378319 -10.002447 -4.792832 65.141264 -1.848210 5.286830 8.698324 6.502315 -0.053658 0.200889 -0.013214 -9.570119 -37.679063 -0.856205 26.785561 63.195494 26.120875 -13.766770 32.069930 -4.047039 0.246809 -14.545611 -5.287710
-16.645697 56.896649 78.406004 -178.987411 -41.085914 0.918334 0.971133 20.920149 4.324987 0.101464 2.933740 0.404403 0.176013 4.773026 0.661528 1.009999 18.325888 2.696600 0.429605 21.842837 -1.452419 1.163735 4.788539 -2.730463 5.283437 1.693112 0.434931 29.496157 -41.337943 -25.208173 -156.854687 -54.829462 -169.653685 6.336152 -3.626514 -46.422857 -11.088391 -1.851959 -2.259544 -10.044488 -34.275989 2.612941 145.347307 -60.291508 -174.145021 -16.490873 -5.075513 10.352792 11.533031 -30.355383 -9.988431 -4.814216 65.147513 -1.868842 5.284377 8.699174 6.496451 -0.050965 0.198598 -0.009913 -9.579099 -37.664658 -0.836710 26.781895 63.198541 26.104053 -13.795510 32.134733 -4.030576 0.251871 -14.566956 -5.329746
-16.640306 56.888672 78.416885 -178.952410 -41.056240 0.913679 0.946968 20.887967 4.308422 0.102988 2.934152 0.403667 0.178224 4.773573 0.660189 1.036684 18.324660 2.692333 0.410096 21.846759 -1.436432 1.166756 4.794792 -2.726860 5.275062 1.681267 0.442314 29.473575 -41.340359 -25.202369 -156.871374 -54.810121 -169.630752 6.357588 -3.636568 -46.436959 -11.126838 -1.865482 -2.243520 -10.053140 -34.283110 2.641168 145.315726 -60.282514 -174.122697 -16.490525 -5.082698 10.362081 11.526930 -30.389264 -10.016163 -4.821084 65.158095 -1.874068 5.282039 8.697508 6.495775 -0.054237 0.199677 -0.011755 -9.635813 -37.706444 -0.831343 26.693143 63.176391 26.028973 -13.848910 32.222556 -4.124557 0.241238 -14.564179 -5.301067
-16.632205 56.883389 78.424618 -178.948057 -41.052857 0.911107 0.952327 20.881383 4.314554 0.113631 2.930689 0.404617 0.181890 4.774019 0.659218 1.027802 18.328227 2.691350 0.416601 21.853756 -1.435911 1.172260 4.808818 -2.725992 5.303694 1.660141 0.415020 29.402517 -41.339980 -25.154601 -156.884716 -54.793694 -169.608344 6.356833 -3.630208 -46.446836 -11.142706 -1.884005 -2.240313 -10.062764 -34.290928 2.665631 145.288737 -60.276404 -174.105961 -16.489350 -5.071075 10.379705 11.531330 -30.397248 -10.016769 -4.827277 65.163434 -1.874768 5.279263 8.698703 6.493088 -0.055500 0.199987 -0.013488 -9.684796 -37.720057 -0.803610 26.681534 63.166951 26.005978 -13.866207 32.268978 -4.151250 0.248340 -14.581938 -5.309216
-16.624355 56.878880 78.431583 -178.953409 -41.057643 0.915491 0.964229 20.882389 4.319140 0.115877 2.930249 0.401822 0.183928 4.774514 0.658810 1.021192 18.330653 2.693491 0.451073 21.862036 -1.448589 1.162279 4.817964 -2.708828 5.317696 1.647209 0.401564 29.394088 -41.344004 -25.143535 -156.899850 -54.803333 -169.605845 6.382049 -3.644157 -46.454756 -11.148595 -1.894148 -2.239191 -10.072084 -34.303695 2.683785 145.278442 -60.271223 -174.111091 -16.487224 -5.061404 10.399137 11.543296 -30.396773 -10.016765 -4.835682 65.168605 -1.877189 5.277720 8.700267 6.491727 -0.056839 0.199615 -0.015761 -9.716148 -37.724763 -0.783900 26.675162 63.151939 25.998506 -13.916060 32.326034 -4.195379 0.252613 -14.590822 -5.310671
-16.616619 56.874998 78.438052 -178.958954 -41.068363 0.920610 0.977230 20.887401 4.319956 0.116942 2.932533 0.401933 0.186012 4.775012 0.658314 1.028803 18.329485 2.693384 0.455962 21.866722 -1.446475 1.168947 4.828074 -2.706620 5.316456 1.634494 0.396813 29.387348 -41.353171 -25.134805 -156.918210 -54.793737 -169.586399 6.417948 -3.645843 -46.463077 -11.168004 -1.899794 -2.230984 -10.073774 -34.302286 2.688879 145.291459 -60.257585 -174.146791 -16.489396 -5.090349 10.382590 11.554822 -30.389159 -10.015141 -4.847721 65.173026 -1.884364 5.277193 8.700324 6.492255 -0.060777 0.202563 -0.019580 -9.722176 -37.718789 -0.781160 26.656496 63.129654 26.000632 -13.985520 32.374460 -4.256071 0.265112 -14.593597 -5.306469
-16.607518 56.871377 78.444427 -178.968513 -41.081272 0.920846 0.997054 20.897074 4.329984 0.116624 2.932211 0.401911 0.188171 4.775347 0.657690 1.051287 18.330445 2.687856 0.450243 21.866624 -1.433477 1.178704 4.835259 -2.703091 5.299761 1.617222 0.402065 29.408139 -41.371561 -25.148188 -156.973398 -54.768927 -169.533582 6.414164 -3.617021 -46.492501 -11.211333 -1.942909 -2.208431 -10.062795 -34.283099 2.703395 145.257190 -60.243746 -174.126146 -16.487959 -5.087614 10.386452 11.563613 -30.380826 -10.002197 -4.861747 65.175415 -1.893967 5.273830 8.704441 6.492199 -0.061130 0.200864 -0.021273 -9.768728 -37.716088 -0.742222 26.673969 63.111293 26.009041 -14.086433 32.448461 -4.319811 0.298363 -14.624537 -5.314873
-16.606026 56.867082 78.452240 -178.974580 -41.086091 0.965367 0.993312 20.899206 4.288094 0.118980 2.930644 0.403878 0.190277 4.775180 0.656863 1.044984 18.334656 2.688333 0.463920 21.863552 -1.437407 1.189251 4.840670 -2.698555 5.308975 1.599601 0.392084 29.405849 -41.374232 -25.144728 -156.988490 -54.770402 -169.531828 6.415553 -3.615877 -46.497156 -11.223361 -1.964978 -2.202829 -10.063083 -34.293114 2.721904 145.213911 -60.247249 -174.080812 -16.492759 -5.099914 10.380454 11.595282 -30.377755 -10.049344 -4.861970 65.191585 -1.897151 5.269441 8.698328 6.498397 -0.059403 0.202142 -0.024252 -9.778512 -37.725603 -0.760682 26.685058 63.091164 26.012533 -14.202655 32.473642 -4.432012 0.334129 -14.589234 -5.278140
-16.596419 56.861497 78.461497 -178.967012 -41.078851 0.953368 1.006601 20.879685 4.305094 0.111646 2.934900 0.400775 0.186948 4.778664 0.656540 1.059461 18.333262 2.686231 0.464636 21.861372 -1.435441 1.190997 4.843452 -2.690059 5.304432 1.585485 0.388239 29.404709 -41.377451 -25.143711 -157.004196 -54.772620 -169.532786 6.414328 -3.616482 -46.502137 -11.250567 -1.981895 -2.192327 -10.065680 -34.304832 2.741278 145.169340 -60.252842 -174.035451 -16.497290 -5.097730 10.386973 11.585185 -30.391515 -10.034432 -4.867990 65.192212 -1.908488 5.268617 8.703790 6.497891 -0.062471 0.201494 -0.023147 -9.868175 -37.740373 -0.702834 26.722866 63.071968 26.018411 -14.246986 32.514204 -4.489304 0.348885 -14.602458 -5.270866
